# xmcd
#
# Track frame offsets: 
#        150
#        13830
#        21127
#        31567
#        40180
#        50265
#        58262
#        77012
#        89090
#
# Disc length: 1364 seconds
#
# Revision: 0
# Processed by: cddbd v1.5.2PL0 Copyright (c) Steve Scherf et al.
# Submitted via: ExactAudioCopy v0.99pb4
#
DISCID=68055209
DTITLE=Alabama - Pride Of Dixie
DYEAR=1981
DGENRE=Country
TTITLE0=Flying United
TTITLE1=Busy Body
TTITLE2=Vacancy
TTITLE3=Backslider Blues
TTITLE4=Tonight Your Maid's Gonna Make The Rounds
TTITLE5=I Wanna Be With You Tonight
TTITLE6=Lovin' You Is Killing Me
TTITLE7=Patches
TTITLE8=Music Moves Me Like A River
EXTD=
EXTT0=
EXTT1=
EXTT2=
EXTT3=
EXTT4=
EXTT5=
EXTT6=
EXTT7=
EXTT8=
PLAYORDER=
